<svg width="212" height="179" viewBox="0 0 212 179" fill="none" xmlns="http://www.w3.org/2000/svg">
<path d="M192.225 19.8215H94.9882L96.5864 12.7384L79.0039 3.1664L71.9139 9.18588C67.6411 8.10053 63.2352 7.55151 58.8101 7.55303H58.7025L53.5078 0L33.8989 4.95371L33.3982 13.9476C29.5309 16.041 25.9765 18.6107 22.8286 21.5889L13.4945 19.72L3.3438 36.2978L9.72954 42.9814C8.56932 47.0427 7.98626 51.2314 7.99563 55.4374L0 60.3404L5.2532 78.8313L14.7885 79.3013C16.8657 82.6965 19.3808 85.8361 22.2764 88.6483L17.1051 97.0972C15.8798 99.0957 15.2338 101.363 15.232 103.672C15.2301 105.98 15.8725 108.248 17.0946 110.249C18.3167 112.249 20.0754 113.911 22.1942 115.067C24.313 116.224 26.7171 116.834 29.1652 116.837C31.4444 116.83 33.6875 116.3 35.7007 115.292V127.625C35.7069 132.57 37.7929 137.31 41.501 140.807C45.2091 144.303 50.2366 146.269 55.4804 146.275H97.6908L93.7363 158.146H81.8236C81.0001 158.146 80.2102 158.454 79.6279 159.003C79.0456 159.553 78.7185 160.297 78.7185 161.074V173.144H61.0728C60.2493 173.144 59.4595 173.452 58.8772 174.001C58.2949 174.551 57.9677 175.295 57.9677 176.072C57.9677 176.848 58.2949 177.593 58.8772 178.142C59.4595 178.691 60.2493 179 61.0728 179H186.628C187.451 179 188.241 178.691 188.824 178.142C189.406 177.593 189.733 176.848 189.733 176.072C189.733 175.295 189.406 174.551 188.824 174.001C188.241 173.452 187.451 173.144 186.628 173.144H168.982V161.074C168.982 160.297 168.655 159.553 168.073 159.003C167.49 158.454 166.701 158.146 165.877 158.146H153.969L150.015 146.275H192.225C197.468 146.268 202.494 144.301 206.201 140.805C209.908 137.309 211.994 132.569 212 127.625V38.4801C211.996 33.5345 209.912 28.7923 206.205 25.2942C202.497 21.7961 197.47 19.8279 192.225 19.8215ZM205.797 38.4713V117.662H41.9063V109.224L46.4434 101.815C50.4658 102.82 54.6142 103.305 58.775 103.258L63.9744 110.809L83.5856 105.855L84.084 96.8633C87.9524 94.7697 91.5077 92.1992 94.6559 89.2198L103.988 91.0887L114.138 74.5131L107.755 67.825C108.915 63.7653 109.497 59.578 109.487 55.3734L117.496 50.4705L112.241 31.9774L102.705 31.5052C101.456 29.468 100.048 27.5209 98.4934 25.6799H192.225C195.822 25.681 199.272 27.029 201.816 29.4275C204.36 31.8261 205.79 35.0789 205.792 38.4713H205.797ZM19.4076 75.1L18.5863 73.6349L10.0782 73.2156L7.15325 62.9331L14.2995 58.5597L14.2363 56.9004C14.0506 52.2285 14.7 47.5604 16.1574 43.0918L16.6745 41.5075L10.9791 35.5498L16.6137 26.333L24.9416 28.0012L26.1396 26.7853C29.5145 23.3605 33.4768 20.4961 37.8605 18.3122L39.4166 17.5333L39.8611 9.50804L50.756 6.75867L55.3938 13.4997L57.1558 13.4401C62.1093 13.267 67.0584 13.8793 71.7969 15.2517L73.4816 15.7393L79.7995 10.3664L89.5665 15.6842L87.8022 23.5285L89.0915 24.6604C92.7221 27.8445 95.7602 31.5806 98.0792 35.7131L98.9029 37.1826L107.404 37.6019L110.322 47.8756L103.192 52.249L103.258 53.9105C103.445 58.5818 102.796 63.2494 101.336 67.7169L100.822 69.3034L106.517 75.2611L100.878 84.4713L92.5523 82.8009L91.3519 84.0189C87.9792 87.4451 84.0174 90.3097 79.6334 92.4921L78.0796 93.2666L77.6304 101.292L66.7379 104.043L62.1001 97.3046L60.3381 97.3664C56.7672 97.4931 53.1932 97.207 49.696 96.5146L52.5484 91.8566C54.6295 92.194 56.736 92.3733 58.8475 92.3928C67.7523 92.3846 76.3893 89.521 83.3402 84.2723C90.291 79.0236 95.1423 71.7019 97.0974 63.5097C99.0524 55.3175 97.995 46.7419 94.0986 39.1913C90.2023 31.6407 83.6988 25.5641 75.6563 21.9595C67.6137 18.3549 58.5103 17.4366 49.8412 19.3554C41.172 21.2742 33.4526 25.916 27.9507 32.5186C22.4488 39.1211 19.4916 47.2917 19.5648 55.6885C19.6379 64.0853 22.7371 72.209 28.3532 78.7254L25.5055 83.3592C23.1257 80.8458 21.0766 78.0704 19.4029 75.0934L19.4076 75.1ZM83.3212 39.7069C83.0386 39.2815 82.6411 38.9347 82.1694 38.7021C81.6977 38.4694 81.1689 38.3593 80.6372 38.383C80.1076 38.3976 79.5908 38.5399 79.1361 38.7964C78.6814 39.0529 78.304 39.415 78.0399 39.8481L67.8353 56.5076L53.1872 48.5353L63.3894 31.8692C63.6543 31.4368 63.7973 30.9476 63.805 30.4483C63.8127 29.949 63.6847 29.4561 63.4333 29.0166C63.1818 28.5771 62.8153 28.2056 62.3685 27.9375C61.9218 27.6694 61.4097 27.5135 60.881 27.4848C55.5215 27.1668 50.1747 28.2712 45.447 30.6729C40.7192 33.0746 36.7997 36.6774 34.1329 41.0728C31.5589 45.3015 30.2287 50.1015 30.2797 54.9771C30.3308 59.8526 31.7611 64.627 34.4231 68.8069L31.7134 73.2333C27.4091 67.4317 25.3321 60.4192 25.8254 53.354C26.3187 46.2888 29.3529 39.5936 34.4267 34.3743C39.5005 29.155 46.3104 25.7237 53.7317 24.6473C61.1529 23.5709 68.7416 24.9137 75.2442 28.4539C81.7468 31.9941 86.7743 37.52 89.4964 44.1188C92.2185 50.7176 92.4723 57.9946 90.2159 64.7478C87.9595 71.501 83.3278 77.3264 77.0859 81.2619C70.8441 85.1974 63.3654 87.0074 55.8852 86.3932L58.5948 81.969C63.7636 82.0463 68.8609 80.8241 73.3628 78.4283C77.8647 76.0325 81.6088 72.5493 84.2103 68.3369C86.9085 63.9601 88.2547 58.9588 88.0967 53.8983C87.9388 48.8379 86.283 43.9199 83.3165 39.7003L83.3212 39.7069ZM25.3113 110.003C23.5384 109.029 22.2457 107.434 21.7149 105.565C21.1841 103.696 21.4583 101.705 22.4776 100.025L40.748 70.1794C41.0439 69.6962 41.1873 69.1433 41.1611 68.5859C41.135 68.0284 40.9405 67.4896 40.6006 67.0329C38.4053 64.0896 37.0315 60.6723 36.606 57.0964C36.1804 53.5205 36.7168 49.9011 38.1656 46.5721C39.6144 43.2432 41.929 40.312 44.8958 38.049C47.8626 35.7859 51.3861 34.2639 55.1411 33.6235L46.2492 48.1426C46.045 48.4756 45.9123 48.8433 45.8589 49.2247C45.8055 49.6061 45.8324 49.9936 45.938 50.3652C46.0437 50.7368 46.226 51.0851 46.4745 51.3901C46.723 51.6952 47.0329 51.9511 47.3864 52.1431L67.4141 63.0434C67.7672 63.2357 68.1569 63.3605 68.5611 63.4107C68.9653 63.4608 69.376 63.4354 69.7698 63.3358C70.1636 63.2362 70.5327 63.0644 70.856 62.8302C71.1793 62.5961 71.4505 62.3041 71.6541 61.971L80.546 47.4563C81.6708 50.3846 82.1005 53.5098 81.805 56.6117C81.5094 59.7136 80.4958 62.7166 78.8355 65.4088C76.662 68.9418 73.4668 71.8182 69.6234 73.7017C65.7801 75.5851 61.4475 76.3977 57.1324 76.0444C56.543 75.9936 55.9505 76.1034 55.4254 76.3608C54.9003 76.6182 54.4646 77.0123 54.17 77.4964L35.8973 107.331C34.8682 109.008 33.1754 110.232 31.1906 110.733C29.2057 111.234 27.0912 110.971 25.3113 110.003ZM162.774 164.002V173.144H84.9404V164.002H162.774ZM147.452 158.146H100.246L104.201 146.275H143.498L147.452 158.146ZM192.225 140.418H55.4757C51.8762 140.418 48.4242 139.07 45.879 136.67C43.3338 134.27 41.9039 131.015 41.9039 127.62V123.518H205.792V127.625C205.791 131.018 204.361 134.271 201.817 136.67C199.273 139.069 195.823 140.417 192.225 140.418ZM87.9051 131.848C87.9051 132.625 87.578 133.37 86.9957 133.919C86.4133 134.468 85.6235 134.776 84.8 134.776H58.1245C57.301 134.776 56.5112 134.468 55.9288 133.919C55.3465 133.37 55.0194 132.625 55.0194 131.848C55.0194 131.072 55.3465 130.327 55.9288 129.778C56.5112 129.229 57.301 128.92 58.1245 128.92H84.8C85.6235 128.92 86.4133 129.229 86.9957 129.778C87.578 130.327 87.9051 131.072 87.9051 131.848ZM113.209 131.848C113.209 132.625 112.882 133.37 112.3 133.919C111.718 134.468 110.928 134.776 110.104 134.776H98.9567C98.1332 134.776 97.3434 134.468 96.7611 133.919C96.1788 133.37 95.8516 132.625 95.8516 131.848C95.8516 131.072 96.1788 130.327 96.7611 129.778C97.3434 129.229 98.1332 128.92 98.9567 128.92H110.104C110.928 128.92 111.718 129.229 112.3 129.778C112.882 130.327 113.209 131.072 113.209 131.848ZM132.535 85.5458L130.041 90.1664L139.337 98.9352L144.233 96.583C146.031 97.5043 147.927 98.2439 149.891 98.7896L151.589 103.712H164.733L166.429 98.7874C168.393 98.2427 170.289 97.5031 172.087 96.5808L176.98 98.933L186.284 90.1664L183.789 85.5503C184.767 83.8554 185.551 82.0677 186.129 80.217L191.35 78.6151V66.2098L186.129 64.6079C185.551 62.7574 184.767 60.9697 183.789 59.2746L186.279 54.6607L176.983 45.8919L172.092 48.2419C170.294 47.3206 168.397 46.581 166.434 46.0353L164.738 41.1147H151.589L149.893 46.0353C147.929 46.581 146.032 47.3206 144.233 48.2419L139.34 45.8919L130.043 54.6607L132.535 59.2746C131.557 60.9698 130.772 62.7583 130.195 64.6101L124.975 66.2098V78.6084L130.193 80.2104C130.771 82.0621 131.556 83.8507 132.535 85.5458ZM131.178 70.4641L135.39 69.1754L135.783 67.5536C136.356 65.2087 137.342 62.9711 138.701 60.934L139.637 59.5284L137.622 55.7993L140.54 53.0499L144.495 54.9476L145.985 54.065C148.145 52.7841 150.518 51.8547 153.005 51.3156L154.718 50.9471L156.091 46.9753H160.217L161.588 50.9471L163.303 51.3156C165.79 51.8545 168.163 52.7839 170.323 54.065L171.816 54.9476L175.768 53.0477L178.686 55.7971L176.671 59.5262L177.607 60.9318C178.965 62.9688 179.95 65.2065 180.521 67.5514L180.916 69.1754L185.128 70.4619V74.352L180.916 75.6495L180.523 77.2647C179.952 79.6099 178.966 81.8478 177.607 83.8843L176.671 85.2921L178.686 89.019L175.768 91.7705L171.816 89.8685L170.323 90.7511C168.163 92.0322 165.79 92.9616 163.303 93.5005L161.586 93.8712L160.217 97.843H156.101L154.73 93.8712L153.014 93.5005C150.528 92.9614 148.155 92.032 145.995 90.7511L144.504 89.8685L140.549 91.7683L137.634 89.0168L139.649 85.2877L138.713 83.8799C137.354 81.8432 136.368 79.6054 135.797 77.2602L135.404 75.6472L131.192 74.3476L131.178 70.4641ZM158.162 90.4885C161.954 90.489 165.661 89.4291 168.814 87.443C171.967 85.4569 174.424 82.6337 175.876 79.3305C177.327 76.0273 177.707 72.3924 176.968 68.8855C176.229 65.3786 174.403 62.1571 171.722 59.6285C169.042 57.0999 165.626 55.3777 161.907 54.6798C158.188 53.9818 154.334 54.3393 150.83 55.7072C147.327 57.0751 144.333 59.3919 142.226 62.3646C140.119 65.3374 138.994 68.8325 138.993 72.408C138.997 77.2014 141.018 81.7976 144.612 85.1875C148.206 88.5773 153.079 90.4839 158.162 90.4885ZM158.162 60.1881C160.726 60.1877 163.232 60.9042 165.364 62.247C167.496 63.5898 169.157 65.4986 170.139 67.732C171.12 69.9654 171.377 72.4231 170.877 74.7941C170.377 77.1652 169.142 79.3431 167.329 81.0526C165.517 82.762 163.207 83.9261 160.693 84.3976C158.178 84.8691 155.572 84.6269 153.204 83.7016C150.835 82.7762 148.811 81.2093 147.387 79.1991C145.963 77.1888 145.203 74.8255 145.204 72.408C145.207 69.1682 146.574 66.0621 149.003 63.7711C151.433 61.4802 154.727 60.1916 158.162 60.1881Z" fill="#FFF8DC"/>
</svg>
