<svg width="749" height="800" viewBox="0 0 749 800" fill="none" xmlns="http://www.w3.org/2000/svg">
<g id="Clip path group">
<mask id="mask0_2_8" style="mask-type:luminance" maskUnits="userSpaceOnUse" x="0" y="0" width="749" height="800">
<g id="clip0">
<path id="Vector" d="M748.781 0H0.0632935V800H748.781V0Z" fill="white"/>
</g>
</mask>
<g mask="url(#mask0_2_8)">
<g id="Group">
<path id="Vector_2" d="M120.76 414.079C135.488 415.075 150.469 415.693 164.958 416.293C169.59 416.486 174.222 416.678 178.854 416.878L183.313 417.073C200.883 417.844 219.055 418.647 236.942 419.228C253.347 419.763 271.246 420.181 291.661 420.513C304.971 420.728 318.305 420.848 331.629 420.964L349.778 421.127C355.745 421.187 361.711 421.256 367.671 421.339C380.858 421.508 394.505 421.651 407.912 421.674C425.146 421.658 445.534 421.552 466.106 420.924C474.668 420.658 483.343 420.157 491.728 419.669C501.222 419.122 511.031 418.557 520.662 418.345C526.477 418.215 532.4 417.737 538.128 417.283C550.39 415.885 562.759 415.812 575.031 417.061C569.944 426.474 564.097 435.467 557.564 443.952C552.887 450.123 548.528 456.529 544.503 463.145L543.728 464.473C533.79 481.435 523.513 498.972 514.272 516.723C511.897 521.267 509.277 525.846 506.729 530.272C499.742 542.41 492.55 554.954 489.093 569.344C488.94 569.98 488.973 570.646 489.189 571.262C489.403 571.877 489.792 572.421 490.304 572.826L499.003 579.662C499.495 580.051 500.087 580.297 500.71 580.374C501.332 580.446 501.964 580.349 502.536 580.092C503.578 579.615 504.633 579.226 505.665 578.841C508.233 578.041 510.641 576.795 512.779 575.159C556.415 537.856 595.426 492.177 639.277 427.045C641.821 423.072 644.056 418.916 645.979 414.61C653.344 399.158 651.815 385.093 641.441 372.805C640.277 371.43 639.144 370.026 638.005 368.626C635.564 365.608 633.041 362.494 630.231 359.626C622.467 351.686 614.728 343.719 607.015 335.723C586.595 314.588 565.477 292.735 543.662 272.287C529.538 259.611 514.636 247.83 499.039 237.014C494.048 233.392 489.056 229.774 484.111 226.096L483.569 225.687C480.78 223.559 474.252 218.591 466.618 225.917C465.992 226.518 465.62 227.335 465.573 228.199C464.931 240.614 472.228 248.838 479.306 256.788C482.088 259.765 484.657 262.932 486.99 266.27C495.612 278.732 505.029 290.627 515.19 301.877L516.979 303.949C521.949 309.698 527.272 315.233 532.42 320.624C537.338 325.756 542.431 331.065 547.138 336.483C550.385 340.21 553.985 343.719 557.456 347.105C564.549 353.432 570.728 360.715 575.81 368.745L574.733 368.878C571.867 369.329 568.964 369.558 566.056 369.562C547.4 369.037 528.744 368.46 510.082 367.832C480.288 366.876 449.477 365.887 419.156 365.23C409.672 365.027 400.189 364.815 390.701 364.592C305.847 362.644 218.133 360.626 131.917 368.28C100.97 371.022 69.7241 375.68 39.5094 380.184L26.8143 382.069C22.0029 383.218 17.4749 385.329 13.5037 388.27C10.5954 390.066 7.30095 392.104 3.09812 394.385C2.53279 394.693 2.06602 395.155 1.75125 395.716C1.43653 396.273 1.28664 396.914 1.31894 397.555C1.3513 398.199 1.56448 398.816 1.93397 399.341C2.30346 399.869 2.81428 400.28 3.40766 400.529C21.9593 408.3 37.952 408.552 52.061 408.775C56.9928 408.851 61.6482 408.924 66.2769 409.289C74.2631 409.917 82.2297 410.687 90.1989 411.454C100.199 412.393 110.541 413.389 120.76 414.079Z" fill="#FFF8DC"/>
<path id="Vector_3" d="M741.097 37.1622C737.549 17.3184 725.277 6.18126 705.631 4.94308C697.974 4.46176 689.723 3.83623 681.374 3.20554C670 2.34579 658.236 1.45828 647.487 0.903931C573.087 1.30559 445.853 8.7187 435.877 10.1428C433.891 10.3285 431.967 10.9437 430.244 11.9452C428.519 12.9466 427.035 14.3105 425.894 15.9422C424.62 18.2291 423.858 20.7639 423.661 23.3722C423.461 25.9804 423.831 28.5996 424.746 31.0518C424.879 31.53 425.112 31.9738 425.435 32.3517C425.758 32.7295 426.16 33.033 426.613 33.2399C445.913 42.103 550.128 44.573 626.226 46.3722C655.949 47.0723 679.944 47.6439 691.544 48.4273C691.944 52.5733 692.359 56.4795 692.759 60.2174C693.759 69.5118 694.605 77.559 694.805 85.6451C695.574 117.971 696.369 156.193 696.364 194.56C696.364 220.101 696.4 245.639 696.467 271.177C696.621 351.013 696.795 433.57 695.308 514.713C694.436 562.554 691.349 611.2 688.359 658.236C687.103 678.021 685.805 698.477 684.697 718.6C684.41 722.323 683.908 726.031 683.2 729.697C682.979 731.026 682.744 732.4 682.503 733.821C680.744 734.082 679.01 734.359 677.287 734.636C672.185 735.549 667.046 736.19 661.877 736.554C645.872 737.385 629.851 738.077 613.836 738.764C585.964 739.964 557.138 741.21 528.826 743.205C498.543 745.338 447.86 748.359 420.344 749.969C415.079 750.272 410.131 752.569 406.511 756.39C402.887 760.21 400.864 765.267 400.847 770.523C400.834 775.785 402.834 780.851 406.437 784.692C410.038 788.528 414.976 790.851 420.237 791.185C461.759 793.841 552.933 799.092 624.179 799.092C640.897 799.092 656.538 798.8 670.164 798.123L675.092 797.892C686.144 797.774 697.159 796.513 707.959 794.128C727.067 789.205 735.636 777.805 736.621 756.01C737.405 738.697 738.328 721.39 739.246 704.082C740.718 676.528 742.241 648.067 743.138 620.015C745.113 558.379 746.267 502.652 746.651 449.649C746.821 425.988 747.041 402.327 747.318 378.658C748.354 279.074 749.426 176.096 744.656 74.8015C744.287 62.1918 743.097 49.6187 741.097 37.1622Z" fill="#FFF8DC"/>
</g>
</g>
</g>
</svg>
