<svg width="805" height="805" viewBox="0 0 805 805" fill="none" xmlns="http://www.w3.org/2000/svg">
<path fill-rule="evenodd" clip-rule="evenodd" d="M402.33 0.159973C624.44 0.159973 804.5 180.22 804.5 402.33C804.5 482.95 780.76 558.03 739.91 620.97C732.26 597.51 722.25 575.1 710.13 554.04C679.11 500.12 634.34 455.1 580.65 423.84L568.07 416.52L558.87 427.85C540.07 450.98 516.16 469.9 488.87 482.9C462.69 495.37 433.33 502.36 402.33 502.36C371.33 502.36 341.97 495.37 315.79 482.9C288.49 469.91 264.58 450.98 245.78 427.85L236.57 416.52L224 423.84C170.31 455.1 125.54 500.11 94.53 554.04C82.41 575.1 72.4 597.51 64.75 620.97C23.9 558.03 0.159973 482.95 0.159973 402.33C0.159973 180.22 180.22 0.159973 402.33 0.159973ZM714.35 656.05C640.61 746.62 528.24 804.5 402.33 804.5C276.42 804.5 164.05 746.62 90.31 656.05C97.5 625.78 108.98 597.2 124.06 571.01C149.72 526.37 185.88 488.49 229.15 460.69C249.45 482.69 273.84 500.8 301.09 513.76C331.78 528.39 366.12 536.58 402.33 536.58C438.54 536.58 472.88 528.39 503.57 513.76C530.81 500.8 555.21 482.68 575.51 460.69C618.78 488.49 654.93 526.38 680.6 571.01C695.68 597.2 707.16 625.78 714.35 656.05ZM402.32 98.5C450.79 98.5 494.75 118.19 526.59 150.02C558.42 181.79 578.12 225.76 578.12 274.28C578.12 322.77 558.42 366.7 526.62 398.51C494.82 430.38 450.85 450.06 402.32 450.06C353.8 450.06 309.84 430.37 278.04 398.56C246.24 366.76 226.54 322.8 226.54 274.28C226.54 225.82 246.24 181.86 278.07 150.02C309.84 118.19 353.79 98.5 402.32 98.5ZM502.44 174.14C476.88 148.54 441.46 132.71 402.32 132.71C363.22 132.71 327.82 148.57 302.22 174.17C276.58 199.73 260.76 235.14 260.76 274.28C260.76 313.38 276.62 348.78 302.22 374.39C327.82 399.99 363.23 415.84 402.32 415.84C441.42 415.84 476.84 400 502.44 374.4C528.05 348.81 543.9 313.41 543.9 274.28C543.9 235.18 528.04 199.77 502.44 174.14Z" fill="#305050"/>
</svg>
